<svg width="25" height="22" viewBox="0 0 25 22" fill="none" xmlns="http://www.w3.org/2000/svg">
<path d="M4.5 5.5H5C5 7.433 6.567 9 8.5 9V9.5V10C6.01472 10 4 7.98528 4 5.5H4.5ZM8.5 9.5V9C10.433 9 12 7.433 12 5.5H12.5H13C13 7.98528 10.9853 10 8.5 10V9.5ZM12.5 5.5H12C12 3.567 10.433 2 8.5 2V1.5V1C10.9853 1 13 3.01472 13 5.5H12.5ZM8.5 1.5V2C6.567 2 5 3.567 5 5.5H4.5H4C4 3.01472 6.01472 1 8.5 1V1.5ZM12.5 13.5V14H4.5V13.5V13H12.5V13.5ZM4.5 21.5V21H12.5V21.5V22H4.5V21.5ZM12.5 21.5V21C14.433 21 16 19.433 16 17.5H16.5H17C17 19.9853 14.9853 22 12.5 22V21.5ZM0.5 17.5H1C1 19.433 2.567 21 4.5 21V21.5V22C2.01472 22 0 19.9853 0 17.5H0.5ZM4.5 13.5V14C2.567 14 1 15.567 1 17.5H0.5H0C0 15.0147 2.01472 13 4.5 13V13.5ZM12.5 13.5V13C14.9853 13 17 15.0147 17 17.5H16.5H16C16 15.567 14.433 14 12.5 14V13.5Z" fill="#066E79"/>
<path d="M14.1632 9.0182C14.3735 8.68036 14.7681 8.5 15.166 8.5C16.8229 8.5 18.166 7.15685 18.166 5.5C18.166 3.84315 16.8229 2.5 15.166 2.5C14.7681 2.5 14.3735 2.31964 14.1632 1.9818C14.1539 1.96685 14.1445 1.95195 14.1351 1.93709C13.785 1.38441 13.9624 0.601867 14.6127 0.530271C14.7944 0.510268 14.979 0.5 15.166 0.5C17.9274 0.5 20.166 2.73858 20.166 5.5C20.166 8.26142 17.9274 10.5 15.166 10.5C14.979 10.5 14.7944 10.4897 14.6127 10.4697C13.9624 10.3981 13.7849 9.61559 14.1351 9.06291C14.1445 9.04805 14.1539 9.03315 14.1632 9.0182Z" fill="#066E79"/>
<path d="M18.2216 19.5892C18.373 19.3366 18.6402 19.1667 18.9346 19.1667H19.166C20.8229 19.1667 22.166 17.8235 22.166 16.1667C22.166 14.5098 20.8229 13.1667 19.166 13.1667H18.9346C18.6402 13.1667 18.373 12.9967 18.2216 12.7442C17.8522 12.1278 18.2531 11.1667 18.9718 11.1667H19.166C21.9274 11.1667 24.166 13.4052 24.166 16.1667C24.166 18.9281 21.9274 21.1667 19.166 21.1667H18.9718C18.2531 21.1667 17.8522 20.2056 18.2216 19.5892Z" fill="#066E79"/>
<path d="M14.1632 9.0182C14.3735 8.68036 14.7681 8.5 15.166 8.5C16.8229 8.5 18.166 7.15685 18.166 5.5C18.166 3.84315 16.8229 2.5 15.166 2.5C14.7681 2.5 14.3735 2.31964 14.1632 1.9818C14.1539 1.96685 14.1445 1.95195 14.1351 1.93709C13.785 1.38441 13.9624 0.601867 14.6127 0.530271C14.7944 0.510268 14.979 0.5 15.166 0.5C17.9274 0.5 20.166 2.73858 20.166 5.5C20.166 8.26142 17.9274 10.5 15.166 10.5C14.979 10.5 14.7944 10.4897 14.6127 10.4697C13.9624 10.3981 13.7849 9.61559 14.1351 9.06291C14.1445 9.04805 14.1539 9.03315 14.1632 9.0182Z" stroke="#CDE2E4"/>
<path d="M18.2216 19.5892C18.373 19.3366 18.6402 19.1667 18.9346 19.1667H19.166C20.8229 19.1667 22.166 17.8235 22.166 16.1667C22.166 14.5098 20.8229 13.1667 19.166 13.1667H18.9346C18.6402 13.1667 18.373 12.9967 18.2216 12.7442C17.8522 12.1278 18.2531 11.1667 18.9718 11.1667H19.166C21.9274 11.1667 24.166 13.4052 24.166 16.1667C24.166 18.9281 21.9274 21.1667 19.166 21.1667H18.9718C18.2531 21.1667 17.8522 20.2056 18.2216 19.5892Z" stroke="#CDE2E4"/>
</svg>
